<?xml version="1.0" encoding="UTF-8"?>
<svg version="1.1" xmlns="http://www.w3.org/2000/svg" width="255" height="255">
<path d="M0 0 C14.97760102 8.7234406 23.81042015 22.93330786 30.5625 38.5 C30.5625 39.16 30.5625 39.82 30.5625 40.5 C31.73425781 40.45359375 32.90601563 40.4071875 34.11328125 40.359375 C45.36469307 40.04410531 54.71404305 40.39995872 63.9375 47.625 C71.00597105 54.34512751 73.64512544 62.88379041 73.90576172 72.35327148 C74.09357575 88.38536625 70.66173808 102.30152384 63.50390625 116.6171875 C62.31074456 119.40572042 62.31074456 119.40572042 63.16796875 121.92578125 C63.62816406 122.77527344 64.08835938 123.62476563 64.5625 124.5 C65.13484375 125.63050781 65.7071875 126.76101562 66.296875 127.92578125 C66.62083252 128.5489624 66.94479004 129.17214355 67.27856445 129.81420898 C77.25673139 149.09904875 86.05072167 171.65745269 79.5625 193.5 C76.14503145 202.72854869 70.81544538 208.70973427 61.875 212.875 C56.13999014 215.28643011 50.67745371 215.69302113 44.5 215.6875 C43.38250366 215.6884668 43.38250366 215.6884668 42.24243164 215.68945312 C35.88249095 215.62935705 29.78378466 214.84255083 23.5625 213.5 C23.03140625 214.23605469 22.5003125 214.97210938 21.953125 215.73046875 C21.24671875 216.70628906 20.5403125 217.68210938 19.8125 218.6875 C19.11640625 219.65042969 18.4203125 220.61335937 17.703125 221.60546875 C11.5490559 229.9269381 3.25092153 238.61810698 -7.4375 240.5 C-20.7898686 241.76631107 -29.12288125 238.83083038 -39.40625 230.5 C-41.36640101 228.57000516 -42.40080795 227.02411978 -43.4375 224.5 C-44.0975 224.5 -44.7575 224.5 -45.4375 224.5 C-46.0975 223.51 -46.7575 222.52 -47.4375 221.5 C-49.21640625 221.933125 -49.21640625 221.933125 -51.03125 222.375 C-66.82331567 226.06172951 -82.55330051 228.61183551 -97.1875 219.875 C-104.68053328 214.47366152 -108.07973392 207.49911154 -109.96875 198.59375 C-113.69688317 173.98807105 -101.777118 148.509427 -88.4375 128.5 C-88.77489577 124.83494126 -89.95678977 122.25493896 -91.87890625 119.15625 C-92.37656494 118.3327002 -92.87422363 117.50915039 -93.38696289 116.66064453 C-93.91926514 115.78263184 -94.45156738 114.90461914 -95 114 C-106.44281188 94.51772187 -116.22548851 70.95356811 -111.74609375 47.94921875 C-109.18277696 38.65049214 -105.68491176 32.28891998 -97.4375 27.125 C-82.92210082 19.16633388 -68.08857589 21.79730244 -52.4375 24.5 C-52.10878906 23.96632813 -51.78007813 23.43265625 -51.44140625 22.8828125 C-40.2029727 5.27897892 -21.72183775 -10.27459678 0 0 Z " fill="#CBACF8" transform="translate(142.4375,7.5)"/>
<path d="M0 0 C22.80187934 13.28055405 31.70784986 38.84159347 38.23974609 63.00537109 C40.86431838 73.15607614 42.25325888 83.01672606 42.5625 93.5 C38.84246845 90.46323955 35.42759653 87.4706642 32.3125 83.8125 C24.5530828 74.7367531 15.94510588 66.86193493 6.5625 59.5 C5.61246094 58.72140625 4.66242188 57.9428125 3.68359375 57.140625 C-13.03268751 43.73344156 -32.12031463 33.30055477 -52.4375 26.5 C-49.4528609 15.80242513 -40.23633716 6.88023443 -31.0546875 0.96484375 C-21.36440356 -4.22741287 -9.97808475 -4.64540935 0 0 Z " fill="#FEDB01" transform="translate(142.4375,7.5)"/>
<path d="M0 0 C3.25386455 3.09042843 5.93976204 6.40770842 8.625 10 C9.78902344 11.546875 9.78902344 11.546875 10.9765625 13.125 C13.74300511 17.05569838 15.19103636 20.14121624 15.9296875 24.89453125 C16.08276367 25.84223389 16.23583984 26.78993652 16.39355469 27.76635742 C16.55243164 28.77158447 16.71130859 29.77681152 16.875 30.8125 C20.39076281 51.7462356 26.39242044 71.23761034 37.53125 89.4453125 C39 92 39 92 39 94 C36.95990245 94.65077296 34.91784331 95.29539824 32.875 95.9375 C31.16957031 96.47697266 31.16957031 96.47697266 29.4296875 97.02734375 C17.11069186 100.52099969 3.14689535 100.65551607 -8.39453125 94.78125 C-16.2325772 90.10181958 -20.41158028 83.9121115 -22.875 75.1875 C-28.02039387 50.9306432 -16.95312791 25.1225336 -4 5 C-2.70322868 3.3047302 -1.38509525 1.62390477 0 0 Z " fill="#5299D7" transform="translate(56,134)"/>
<path d="M0 0 C3.64812944 2.97806485 6.99163133 5.87432971 10 9.5 C24.85150681 26.77758077 44.01273765 41.1896452 64 52 C64.6492041 52.35143066 65.2984082 52.70286133 65.96728516 53.06494141 C75.0517366 57.91773728 84.20272008 61.81588403 94 65 C94 69.88713084 90.77729844 73.12780505 88 77 C87.278125 78.010625 86.55625 79.02125 85.8125 80.0625 C79.40250241 87.46501335 70.54314915 93.37946124 60.74609375 94.30859375 C48.64766762 94.73928206 41.31851553 91.52386068 32.03125 84 C30.07109899 82.07000516 29.03669205 80.52411978 28 78 C27.34 78 26.68 78 26 78 C12.64818799 54.62692411 -0.71398867 27.7027605 0 0 Z " fill="#FEDB01" transform="translate(71,154)"/>
<path d="M0 0 C12.34997919 -0.48910809 23.15922705 -0.87735548 33.375 7.125 C40.44347105 13.84512751 43.08262544 22.38379041 43.34326172 31.85327148 C43.53774201 48.45440796 39.8681852 64.2788793 32 79 C31.01 79.495 31.01 79.495 30 80 C29.52691406 79.27296875 29.05382812 78.5459375 28.56640625 77.796875 C24.92566902 72.26125114 21.21978354 66.9530961 17.125 61.75 C13.62910609 57.10879608 11.63019625 53.74291747 11 48 C9.08048676 33.03188079 6.37024457 17.91756262 0.69921875 3.86328125 C0 2 0 2 0 0 Z " fill="#5299D7" transform="translate(173,48)"/>
</svg>
