<?xml version="1.0" encoding="UTF-8"?>
<svg version="1.1" xmlns="http://www.w3.org/2000/svg" width="256" height="256">
<path d="M0 0 C84.48 0 168.96 0 256 0 C256 84.48 256 168.96 256 256 C171.52 256 87.04 256 0 256 C0 171.52 0 87.04 0 0 Z " fill="#181818" transform="translate(0,0)"/>
<path d="M0 0 C0.639375 -0.01289063 1.27875 -0.02578125 1.9375 -0.0390625 C5.24327885 1.02529811 6.79999892 2.9884497 9 5.625 C9.60127258 8.80781555 9.60127258 8.80781555 9.56762695 12.43481445 C9.56835709 13.09878738 9.56908722 13.76276031 9.56983948 14.44685364 C9.56637286 16.62817852 9.52756313 18.80733241 9.48828125 20.98828125 C9.47894965 22.50570001 9.47183517 24.02313388 9.46684265 25.54057312 C9.44779966 29.52432225 9.39872383 33.50715226 9.34332275 37.49053955 C9.29207098 41.55932177 9.26931606 45.62825328 9.24414062 49.69726562 C9.19060098 57.67359773 9.10532267 65.64918436 9 73.625 C10.10167511 73.61611755 11.20335022 73.60723511 12.33840942 73.5980835 C22.72608075 73.51695907 33.11368772 73.45701599 43.50160408 73.41775131 C48.84202412 73.3968862 54.1821882 73.36858788 59.52246094 73.32324219 C64.67717883 73.27974654 69.83165068 73.2558548 74.98653793 73.24549103 C76.95212552 73.23810637 78.91769981 73.2236858 80.88318253 73.20207977 C83.63872513 73.17299647 86.39325412 73.16904607 89.14892578 73.17089844 C89.95956985 73.15651733 90.77021393 73.14213623 91.60542297 73.12731934 C96.87256346 73.16557307 99.80179162 74.17245205 104 77.625 C108.30273316 82.40581462 110.50327626 85.89769484 110.31420898 92.49682617 C109.29884487 99.37400486 104.42274041 104.93723619 100.0625 110.0625 C98.89365201 111.46693745 97.72705226 112.8732485 96.5625 114.28125 C95.96953125 114.99796875 95.3765625 115.7146875 94.765625 116.453125 C91.94413136 119.92381187 89.25542099 123.49174867 86.5625 127.0625 C81.56591079 133.66402668 76.38537833 140.08500978 71.09667969 146.45410156 C65.60132195 153.07860036 60.28684068 159.83378968 55 166.625 C47.5763716 176.14240241 40.06799046 185.58332293 32.39501953 194.90136719 C31.19835354 196.37992195 30.0456702 197.89388543 28.90234375 199.4140625 C25.14377154 204.25996653 25.14377154 204.25996653 21.98046875 205.26953125 C18.01264493 205.58607378 16.11947833 204.7215995 13.0625 202.25 C9.97239573 198.31714002 9.87688847 196.39677416 9.88647461 191.43115234 C9.88658791 189.47935562 9.88658791 189.47935562 9.88670349 187.48812866 C9.89181053 186.06239789 9.89702653 184.6366675 9.90234375 183.2109375 C9.90420853 181.75648039 9.90563215 180.30202266 9.90663147 178.8475647 C9.91045195 175.01707224 9.92027824 171.18661763 9.93133545 167.35614014 C9.94155965 163.44836947 9.94613126 159.54059269 9.95117188 155.6328125 C9.96190092 147.9635244 9.97897172 140.2942675 10 132.625 C8.94035034 132.63610306 7.88070068 132.64720612 6.78894043 132.65864563 C-3.21545022 132.76016816 -13.21973584 132.83503565 -23.22452545 132.88406086 C-28.36767611 132.91011304 -33.51040967 132.94543112 -38.65332031 133.00219727 C-43.62003152 133.05667316 -48.58634247 133.08645347 -53.55332947 133.09938622 C-55.44472043 133.10859816 -57.33609041 133.12658716 -59.22731018 133.15365028 C-61.88443696 133.19014837 -64.53992701 133.1949368 -67.19726562 133.19262695 C-68.36036758 133.21959152 -68.36036758 133.21959152 -69.54696655 133.24710083 C-75.47128139 133.19167078 -79.36919756 131.27416804 -84 127.625 C-88.04625709 123.36578201 -89.71422748 119.7325723 -90.5 113.9375 C-90.26971449 105.78539307 -83.94603675 99.51021762 -78.82641602 93.73974609 C-75.96784629 90.4299037 -73.36876259 86.93786249 -70.75 83.4375 C-66.73709047 78.12713134 -62.65441881 72.92034078 -58.3125 67.875 C-53.4070098 62.17249989 -48.82051707 56.27003951 -44.26806641 50.28417969 C-37.60729575 41.56900884 -30.7274411 33.03102093 -23.78393555 24.54052734 C-19.4707185 19.24952729 -15.31319559 13.85612905 -11.21875 8.39453125 C-4.4222262 -0.08915779 -4.4222262 -0.08915779 0 0 Z " fill="#32B178" transform="translate(118,25.375)"/>
<path d="M0 0 C0.639375 -0.01289063 1.27875 -0.02578125 1.9375 -0.0390625 C5.23561751 1.02283139 7.26286151 2.68772728 9 5.625 C9.76605494 9.66094971 9.68988948 13.66116298 9.65942383 17.7590332 C9.66990753 18.98871323 9.68039124 20.21839325 9.69119263 21.4853363 C9.71502858 24.84902241 9.71687382 28.21136534 9.70889878 31.57503533 C9.7057712 35.09318438 9.73081531 38.61113097 9.75285339 42.12919617 C9.79028994 48.78726797 9.80244113 55.44513552 9.8054778 62.10330218 C9.81016908 69.68499251 9.84309453 77.26647829 9.87837565 84.84807837 C9.95030297 100.44037083 9.98682572 116.03254051 10 131.625 C-1.3700805 131.71772773 -12.74007087 131.78877926 -24.11045265 131.83224869 C-29.39034009 131.85311311 -34.6699686 131.88141012 -39.94970703 131.92675781 C-45.04607052 131.970256 -50.14218513 131.99414573 -55.23871994 132.00450897 C-57.18197929 132.01189318 -59.1252252 132.02631288 -61.06837845 132.04792023 C-63.79279135 132.07700697 -66.51617917 132.0809538 -69.24072266 132.07910156 C-70.04201599 132.09348267 -70.84330933 132.10786377 -71.66888428 132.12268066 C-76.91107548 132.08418025 -79.81742856 131.05077768 -84 127.625 C-88.36610591 122.89505193 -90.62711934 118.4375247 -90.44140625 111.86328125 C-89.01956431 104.65341018 -83.54761607 99.06114624 -78.82641602 93.73974609 C-75.96784629 90.4299037 -73.36876259 86.93786249 -70.75 83.4375 C-66.73709047 78.12713134 -62.65441881 72.92034078 -58.3125 67.875 C-53.4070098 62.17249989 -48.82051707 56.27003951 -44.26806641 50.28417969 C-37.60729575 41.56900884 -30.7274411 33.03102093 -23.78393555 24.54052734 C-19.4707185 19.24952729 -15.31319559 13.85612905 -11.21875 8.39453125 C-4.4222262 -0.08915779 -4.4222262 -0.08915779 0 0 Z " fill="#3DCE8D" transform="translate(118,25.375)"/>
</svg>
